<svg width="260" height="560" xmlns="http://www.w3.org/2000/svg">
  <defs>
    <linearGradient id="gradient" x1="0%" y1="0%" x2="100%" y2="100%">
      <stop offset="0%" style="stop-color:#8E24AA;stop-opacity:1" />
      <stop offset="100%" style="stop-color:#5E35B1;stop-opacity:1" />
    </linearGradient>
  </defs>
  <rect width="260" height="560" fill="url(#gradient)"/>
  
  <!-- Status Bar -->
  <rect x="0" y="0" width="260" height="30" fill="#000" opacity="0.1"/>
  <text x="20" y="20" fill="white" font-family="Arial" font-size="12">9:41</text>
  <text x="220" y="20" fill="white" font-family="Arial" font-size="12">100%</text>
  
  <!-- Header -->
  <rect x="20" y="50" width="170" height="50" fill="rgba(255,255,255,0.1)" rx="12"/>
  <text x="35" y="75" fill="white" font-family="Arial" font-size="18" font-weight="bold">Categorías</text>
  <text x="35" y="92" fill="rgba(255,255,255,0.8)" font-family="Arial" font-size="12">Organiza tus productos</text>
  
  <!-- Add Button -->
  <rect x="200" y="60" width="40" height="30" fill="#4CAF50" rx="8"/>
  <text x="220" y="80" fill="white" font-family="Arial" font-size="12" text-anchor="middle">+ Nueva</text>
  
  <!-- Category Cards -->
  <!-- Electrónicos -->
  <rect x="20" y="120" width="220" height="65" fill="white" rx="15" opacity="0.95"/>
  <circle cx="50" cy="145" r="15" fill="#2196F3"/>
  <text x="50" y="151" fill="white" font-family="Arial" font-size="14" font-weight="bold" text-anchor="middle">📱</text>
  <text x="75" y="145" fill="#333" font-family="Arial" font-size="16" font-weight="bold">Electrónicos</text>
  <text x="75" y="162" fill="#666" font-family="Arial" font-size="12">23 productos • $1,250 en stock</text>
  <circle cx="215" cy="152" r="8" fill="#E8F5E8"/>
  <text x="215" y="156" fill="#4CAF50" font-family="Arial" font-size="12" text-anchor="middle">›</text>
  
  <!-- Ropa y Accesorios -->
  <rect x="20" y="195" width="220" height="65" fill="white" rx="15" opacity="0.95"/>
  <circle cx="50" cy="220" r="15" fill="#FF9800"/>
  <text x="50" y="226" fill="white" font-family="Arial" font-size="14" font-weight="bold" text-anchor="middle">👕</text>
  <text x="75" y="220" fill="#333" font-family="Arial" font-size="16" font-weight="bold">Ropa y Accesorios</text>
  <text x="75" y="237" fill="#666" font-family="Arial" font-size="12">15 productos • $890 en stock</text>
  <circle cx="215" cy="227" r="8" fill="#E8F5E8"/>
  <text x="215" y="231" fill="#4CAF50" font-family="Arial" font-size="12" text-anchor="middle">›</text>
  
  <!-- Alimentos -->
  <rect x="20" y="270" width="220" height="65" fill="white" rx="15" opacity="0.95"/>
  <circle cx="50" cy="295" r="15" fill="#4CAF50"/>
  <text x="50" y="301" fill="white" font-family="Arial" font-size="14" font-weight="bold" text-anchor="middle">🍎</text>
  <text x="75" y="295" fill="#333" font-family="Arial" font-size="16" font-weight="bold">Alimentos y Bebidas</text>
  <text x="75" y="312" fill="#666" font-family="Arial" font-size="12">31 productos • $567 en stock</text>
  <circle cx="215" cy="302" r="8" fill="#E8F5E8"/>
  <text x="215" y="306" fill="#4CAF50" font-family="Arial" font-size="12" text-anchor="middle">›</text>
  
  <!-- Hogar -->
  <rect x="20" y="345" width="220" height="65" fill="white" rx="15" opacity="0.95"/>
  <circle cx="50" cy="370" r="15" fill="#9C27B0"/>
  <text x="50" y="376" fill="white" font-family="Arial" font-size="14" font-weight="bold" text-anchor="middle">🏠</text>
  <text x="75" y="370" fill="#333" font-family="Arial" font-size="16" font-weight="bold">Hogar y Decoración</text>
  <text x="75" y="387" fill="#666" font-family="Arial" font-size="12">12 productos • $423 en stock</text>
  <circle cx="215" cy="377" r="8" fill="#E8F5E8"/>
  <text x="215" y="381" fill="#4CAF50" font-family="Arial" font-size="12" text-anchor="middle">›</text>
  
  <!-- Otros -->
  <rect x="20" y="420" width="220" height="65" fill="white" rx="15" opacity="0.95"/>
  <circle cx="50" cy="445" r="15" fill="#607D8B"/>
  <text x="50" y="451" fill="white" font-family="Arial" font-size="14" font-weight="bold" text-anchor="middle">📦</text>
  <text x="75" y="445" fill="#333" font-family="Arial" font-size="16" font-weight="bold">Otros Productos</text>
  <text x="75" y="462" fill="#666" font-family="Arial" font-size="12">8 productos • $156 en stock</text>
  <circle cx="215" cy="452" r="8" fill="#E8F5E8"/>
  <text x="215" y="456" fill="#4CAF50" font-family="Arial" font-size="12" text-anchor="middle">›</text>
  
  <!-- Summary -->
  <rect x="20" y="500" width="220" height="50" fill="rgba(255,255,255,0.15)" rx="12"/>
  <text x="35" y="520" fill="white" font-family="Arial" font-size="14" font-weight="bold">Total: 89 productos</text>
  <text x="35" y="535" fill="rgba(255,255,255,0.8)" font-family="Arial" font-size="12">Valor total del inventario: $3,286</text>
</svg>