<svg width="260" height="560" xmlns="http://www.w3.org/2000/svg">
  <rect width="260" height="560" fill="#FFFFFF"/>
  
  <!-- Status Bar -->
  <rect x="0" y="0" width="260" fill="#000" opacity="0.05"/>
  <text x="20" y="20" fill="#212121" font-family="Arial" font-size="12">9:41</text>
  <text x="220" y="20" fill="#212121" font-family="Arial" font-size="12">100%</text>
  
  <!-- PRO Feature Notice -->
  <rect x="16" y="50" width="228" height="40" fill="#FF9800" rx="8"/>
  <circle cx="35" cy="70" r="10" fill="white"/>
  <text x="35" y="76" fill="#FF9800" font-family="Arial" font-size="12" text-anchor="middle">★</text>
  <text x="130" y="68" fill="white" font-family="Arial" font-size="12" text-anchor="middle">Función PRO</text>
  <text x="130" y="82" fill="white" font-family="Arial" font-size="10" text-anchor="middle">Escaneo de códigos de barras disponible en versión PRO</text>
  
  <!-- Camera Viewfinder (Simulated) -->
  <rect x="30" y="110" width="200" height="300" fill="#212121" rx="20"/>
  
  <!-- Scanning Frame -->
  <rect x="60" y="190" width="140" height="120" fill="none" stroke="#4CAF50" stroke-width="4" rx="8"/>
  
  <!-- Corner Brackets -->
  <path d="M 55 185 L 55 175 L 65 175" stroke="#4CAF50" stroke-width="6" fill="none" stroke-linecap="round"/>
  <path d="M 195 175 L 205 175 L 205 185" stroke="#4CAF50" stroke-width="6" fill="none" stroke-linecap="round"/>
  <path d="M 205 325 L 205 335 L 195 335" stroke="#4CAF50" stroke-width="6" fill="none" stroke-linecap="round"/>
  <path d="M 65 335 L 55 335 L 55 325" stroke="#4CAF50" stroke-width="6" fill="none" stroke-linecap="round"/>
  
  <!-- Scanning Line -->
  <line x1="65" y1="240" x2="195" y2="240" stroke="#4CAF50" stroke-width="2" opacity="0.8"/>
  
  <!-- Sample Barcode -->
  <rect x="90" y="230" width="80" height="40" fill="white" rx="4"/>
  <g stroke="black" stroke-width="1">
    <line x1="95" y1="235" x2="95" y2="265"/>
    <line x1="98" y1="235" x2="98" y2="265" stroke-width="2"/>
    <line x1="102" y1="235" x2="102" y2="265"/>
    <line x1="105" y1="235" x2="105" y2="265" stroke-width="3"/>
    <line x1="110" y1="235" x2="110" y2="265"/>
    <line x1="113" y1="235" x2="113" y2="265" stroke-width="2"/>
    <line x1="117" y1="235" x2="117" y2="265"/>
    <line x1="120" y1="235" x2="120" y2="265" stroke-width="3"/>
    <line x1="125" y1="235" x2="125" y2="265"/>
    <line x1="128" y1="235" x2="128" y2="265" stroke-width="2"/>
    <line x1="132" y1="235" x2="132" y2="265"/>
    <line x1="135" y1="235" x2="135" y2="265" stroke-width="3"/>
    <line x1="140" y1="235" x2="140" y2="265"/>
    <line x1="143" y1="235" x2="143" y2="265" stroke-width="2"/>
    <line x1="147" y1="235" x2="147" y2="265"/>
    <line x1="150" y1="235" x2="150" y2="265" stroke-width="3"/>
    <line x1="155" y1="235" x2="155" y2="265"/>
    <line x1="158" y1="235" x2="158" y2="265" stroke-width="2"/>
    <line x1="162" y1="235" x2="162" y2="265"/>
    <line x1="165" y1="235" x2="165" y2="265"/>
  </g>
  
  <!-- Instructions -->
  <text x="130" y="140" fill="white" font-family="Arial" font-size="14" text-anchor="middle">Coloca el código de barras</text>
  <text x="130" y="160" fill="white" font-family="Arial" font-size="14" text-anchor="middle">dentro del marco verde</text>
  
  <text x="130" y="350" fill="white" font-family="Arial" font-size="12" text-anchor="middle">El escaneo es automático</text>
  <text x="130" y="370" fill="white" font-family="Arial" font-size="12" text-anchor="middle">cuando detecte el código</text>
  
  <!-- Instructions Card -->
  <rect x="16" y="430" width="228" height="80" fill="#FFFFFF" rx="12" stroke="#E0E0E0"/>
  <text x="25" y="450" fill="#212121" font-family="Arial" font-size="14" font-weight="bold">Cómo usar el escáner:</text>
  <text x="25" y="470" fill="#757575" font-family="Arial" font-size="12">• Mantén el código dentro del marco</text>
  <text x="25" y="485" fill="#757575" font-family="Arial" font-size="12">• Asegúrate de tener buena iluminación</text>
  <text x="25" y="500" fill="#757575" font-family="Arial" font-size="12">• El producto se agregará automáticamente</text>
  
  <!-- Upgrade Button -->
  <rect x="60" y="520" width="140" height="30" fill="#FF9800" rx="8"/>
  <text x="130" y="540" fill="white" font-family="Arial" font-size="12" font-weight="bold" text-anchor="middle">Actualizar a PRO para escanear</text>
</svg>