<svg width="260" height="560" xmlns="http://www.w3.org/2000/svg">
  <defs>
    <linearGradient id="gradient" x1="0%" y1="0%" x2="100%" y2="100%">
      <stop offset="0%" style="stop-color:#FF9800;stop-opacity:1" />
      <stop offset="100%" style="stop-color:#F57200;stop-opacity:1" />
    </linearGradient>
  </defs>
  <rect width="260" height="560" fill="url(#gradient)"/>
  <!-- Header -->
  <rect x="20" y="40" width="220" height="40" fill="rgba(255,255,255,0.2)" rx="8"/>
  <text x="30" y="65" fill="white" font-family="Arial" font-size="18" font-weight="bold">Reportes y Análisis</text>
  <!-- Summary Cards -->
  <rect x="20" y="100" width="70" height="60" fill="white" rx="8"/>
  <text x="55" y="120" fill="#FF9800" font-family="Arial" font-size="18" font-weight="bold" text-anchor="middle">$234</text>
  <text x="55" y="140" fill="#666" font-family="Arial" font-size="10" text-anchor="middle">Ventas</text>
  <text x="55" y="152" fill="#666" font-family="Arial" font-size="10" text-anchor="middle">Hoy</text>
  
  <rect x="95" y="100" width="70" height="60" fill="white" rx="8"/>
  <text x="130" y="120" fill="#4CAF50" font-family="Arial" font-size="18" font-weight="bold" text-anchor="middle">18</text>
  <text x="130" y="140" fill="#666" font-family="Arial" font-size="10" text-anchor="middle">Productos</text>
  <text x="130" y="152" fill="#666" font-family="Arial" font-size="10" text-anchor="middle">Vendidos</text>
  <rect x="170" y="100" width="70" height="60" fill="white" rx="8"/>
  <text x="205" y="120" fill="#2196F3" font-family="Arial" font-size="18" font-weight="bold" text-anchor="middle">72</text>
  <text x="205" y="140" fill="#666" font-family="Arial" font-size="10" text-anchor="middle">Stock</text>
  <text x="205" y="152" fill="#666" font-family="Arial" font-size="10" text-anchor="middle">Total</text>
  <!-- Chart Area -->
  <rect x="20" y="180" width="220" height="180" fill="white" rx="12"/>
  <text x="30" y="205" fill="#333" font-family="Arial" font-size="16" font-weight="bold">Ventas Mensuales</text>
  <!-- Bar Chart -->
  <rect x="40" y="320" width="15" height="30" fill="#2196F3"/>
  <rect x="60" y="310" width="15" height="40" fill="#2196F3"/>
  <rect x="80" y="300" width="15" height="50" fill="#2196F3"/>
  <rect x="100" y="290" width="15" height="60" fill="#2196F3"/>
  <rect x="120" y="280" width="15" height="70" fill="#2196F3"/>
  <rect x="140" y="270" width="15" height="80" fill="#2196F3"/>
  <rect x="160" y="260" width="15" height="90" fill="#2196F3"/>
  <rect x="180" y="240" width="15" height="110" fill="#2196F3"/>
  <rect x="200" y="230" width="15" height="120" fill="#2196F3"/>
  <text x="47" y="370" fill="#666" font-family="Arial" font-size="8" text-anchor="middle">E</text>
  <text x="67" y="370" fill="#666" font-family="Arial" font-size="8" text-anchor="middle">F</text>
  <text x="87" y="370" fill="#666" font-family="Arial" font-size="8" text-anchor="middle">M</text>
  <text x="107" y="370" fill="#666" font-family="Arial" font-size="8" text-anchor="middle">A</text>
  <text x="127" y="370" fill="#666" font-family="Arial" font-size="8" text-anchor="middle">M</text>
  <text x="147" y="370" fill="#666" font-family="Arial" font-size="8" text-anchor="middle">J</text>
  <text x="167" y="370" fill="#666" font-family="Arial" font-size="8" text-anchor="middle">J</text>
  <text x="187" y="370" fill="#666" font-family="Arial" font-size="8" text-anchor="middle">A</text>
  <text x="207" y="370" fill="#666" font-family="Arial" font-size="8" text-anchor="middle">S</text>
  <!-- Export Options -->
  <rect x="20" y="390" width="220" height="100" fill="white" rx="12"/>
  <text x="30" y="415" fill="#333" font-family="Arial" font-size="16" font-weight="bold">Exportar Reportes</text>
  <!-- Export Buttons -->
  <rect x="30" y="430" width="90" height="30" fill="#4CAF50" rx="6"/>
  <text x="75" y="450" fill="white" font-family="Arial" font-size="12" text-anchor="middle">Excel (CSV)</text>
  <rect x="140" y="430" width="90" height="30" fill="#FF9800" rx="6"/>
  <text x="185" y="450" fill="white" font-family="Arial" font-size="12" text-anchor="middle">PDF Catálogo</text>
  <text x="130" y="475" fill="#666" font-family="Arial" font-size="10" text-anchor="middle">Comparte facilmente tus datos</text>
</svg>