<svg width="260" height="560" xmlns="http://www.w3.org/2000/svg">
  <rect width="260" height="560" fill="#FFFFFF"/>
  
  <!-- Status Bar -->
  <rect x="0" y="0" width="260" height="30" fill="#000" opacity="0.05"/>
  <text x="20" y="20" fill="#212121" font-family="Arial" font-size="12">9:41</text>
  <text x="220" y="20" fill="#212121" font-family="Arial" font-size="12">100%</text>
  
  <!-- Header -->
  <text x="130" y="60" fill="#212121" font-family="Arial" font-size="24" font-weight="bold" text-anchor="middle">Reportes</text>
  
  <!-- PRO Button -->
  <rect x="80" y="75" width="100" height="25" fill="#2196F3" rx="12"/>
  <text x="130" y="92" fill="white" font-family="Arial" font-size="12" font-weight="bold" text-anchor="middle">📊 Reportes Avanzados</text>
  
  <!-- Sales Stats Section -->
  <text x="25" y="130" fill="#212121" font-family="Arial" font-size="18" font-weight="bold">Estadísticas de Ventas</text>
  
  <!-- Stats Grid Row 1 -->
  <rect x="16" y="140" width="110" height="70" fill="#FFFFFF" rx="12" stroke="#E0E0E0"/>
  <circle cx="40" cy="160" r="12" fill="#4CAF50"/>
  <text x="40" y="166" fill="white" font-family="Arial" font-size="12" text-anchor="middle">📈</text>
  <text x="100" y="160" fill="#212121" font-family="Arial" font-size="16" font-weight="bold" text-anchor="end">$2,450</text>
  <text x="63" y="185" fill="#757575" font-family="Arial" font-size="12" text-anchor="middle">Total Vendido</text>
  
  <rect x="134" y="140" width="110" height="70" fill="#FFFFFF" rx="12" stroke="#E0E0E0"/>
  <circle cx="158" cy="160" r="12" fill="#FF9800"/>
  <text x="158" y="166" fill="white" font-family="Arial" font-size="12" text-anchor="middle">💰</text>
  <text x="218" y="160" fill="#212121" font-family="Arial" font-size="16" font-weight="bold" text-anchor="end">$890</text>
  <text x="181" y="185" fill="#757575" font-family="Arial" font-size="12" text-anchor="middle">Ganancia Total</text>
  
  <!-- Stats Grid Row 2 -->
  <rect x="16" y="220" width="110" height="70" fill="#FFFFFF" rx="12" stroke="#E0E0E0"/>
  <circle cx="40" cy="240" r="12" fill="#F44336"/>
  <text x="40" y="246" fill="white" font-family="Arial" font-size="12" text-anchor="middle">📤</text>
  <text x="100" y="240" fill="#212121" font-family="Arial" font-size="18" font-weight="bold" text-anchor="end">47</text>
  <text x="63" y="265" fill="#757575" font-family="Arial" font-size="12" text-anchor="middle">Movimientos Salida</text>
  
  <rect x="134" y="220" width="110" height="70" fill="#FFFFFF" rx="12" stroke="#E0E0E0"/>
  <circle cx="158" cy="240" r="12" fill="#2196F3"/>
  <text x="158" y="246" fill="white" font-family="Arial" font-size="12" text-anchor="middle">📅</text>
  <text x="218" y="240" fill="#212121" font-family="Arial" font-size="18" font-weight="bold" text-anchor="end">$340</text>
  <text x="181" y="265" fill="#757575" font-family="Arial" font-size="12" text-anchor="middle">Ventas Hoy</text>
  
  <!-- Top Products Section -->
  <text x="25" y="320" fill="#212121" font-family="Arial" font-size="18" font-weight="bold">Productos Más Vendidos (3)</text>
  
  <rect x="16" y="330" width="228" height="90" fill="#FFFFFF" rx="12" stroke="#E0E0E0"/>
  <text x="25" y="350" fill="#212121" font-family="Arial" font-size="14">1. iPhone 13 Pro</text>
  <text x="200" y="350" fill="#2196F3" font-family="Arial" font-size="14" text-anchor="end">12 vendidos</text>
  <text x="25" y="370" fill="#212121" font-family="Arial" font-size="14">2. Camiseta Nike</text>
  <text x="200" y="370" fill="#2196F3" font-family="Arial" font-size="14" text-anchor="end">8 vendidos</text>
  <text x="25" y="390" fill="#212121" font-family="Arial" font-size="14">3. Manzanas Rojas</text>
  <text x="200" y="390" fill="#2196F3" font-family="Arial" font-size="14" text-anchor="end">5 vendidos</text>
  
  <!-- PRO Upgrade Hint -->
  <rect x="25" y="405" width="190" height="20" fill="#F5F5F5" rx="4"/>
  <text x="120" y="418" fill="#757575" font-family="Arial" font-size="10" text-anchor="middle">📊 Desbloquea reportes con gráficos</text>
  
  <!-- Export Data Section (PRO) -->
  <rect x="16" y="440" width="228" height="100" fill="#FFFFFF" rx="12" stroke="#E0E0E0" opacity="0.6"/>
  
  <!-- PRO Overlay -->
  <rect x="16" y="440" width="228" height="100" fill="rgba(255,255,255,0.9)" rx="12"/>
  <circle cx="130" cy="470" r="16" fill="#BDBDBD"/>
  <text x="130" y="477" fill="white" font-family="Arial" font-size="16" text-anchor="middle">🔒</text>
  <text x="130" y="500" fill="#757575" font-family="Arial" font-size="14" font-weight="bold" text-anchor="middle">Función PRO</text>
  <rect x="90" y="510" width="80" height="20" fill="#FF9800" rx="10"/>
  <text x="130" y="523" fill="white" font-family="Arial" font-size="10" text-anchor="middle">Actualizar a PRO</text>
  
  <!-- Blurred Export Content Behind -->
  <text x="25" y="460" fill="#212121" font-family="Arial" font-size="16" font-weight="bold" opacity="0.3">Exportar Datos</text>
  <text x="25" y="480" fill="#757575" font-family="Arial" font-size="12" opacity="0.3">Exporta reportes especializados en formato CSV</text>
  <rect x="25" y="490" width="80" height="25" fill="#2196F3" rx="6" opacity="0.3"/>
  <text x="65" y="507" fill="white" font-family="Arial" font-size="11" text-anchor="middle" opacity="0.3">Exportar CSV</text>
</svg>